<svg width="83" height="21" viewBox="0 0 83 21" fill="none" xmlns="http://www.w3.org/2000/svg"><path d="M24.8 13.6C24.8 16.4 22.8 18.5 20 18.6C17.1 18.6 15.2 17 15.2 13.9V6.00001H15.1C15.1 5.90001 15.1 5.9 15.1 5.8C15.1 5.4 14.8 5.10001 14.4 5.10001H8C7.8 5.10001 7.7 5.2 7.5 5.3L0.6 12.2C0.3 12.5 0.3 12.9 0.6 13.1L7.5 20C7.6 20.1 7.8 20.2 8 20.2C8.2 20.2 8.3 20.1 8.5 20C8.8 19.7 8.8 19.3 8.5 19.1L2 12.8L8.3 6.50001H13.9V13.9C13.9 17.7 16.4 19.9 20 19.9C21.9 19.9 23.8 19.1 24.8 17.2V19.7H26.1V6.00001H24.7V13.6H24.8Z" fill="white"/><path d="M45.5 5.79999C43.4 5.79999 41.3 6.89999 40.5 9.19999C39.7 6.79999 37.5 5.79999 35.5 5.79999C33.7 5.79999 32 6.49999 31.1 8.29999V5.99999H29.8V19.6H31V11.5C31 8.89999 32.8 6.99999 35.4 6.99999C38 6.99999 39.8 8.89999 39.8 11.5V19.6H41.2V11.5C41.2 8.89999 43 6.99999 45.6 6.99999C48.2 6.99999 50 8.79999 50 11.5V19.7H51.4V11.5C51.2 8.09999 48.8 5.79999 45.5 5.79999Z" fill="white"/><path d="M82.7 12.3L75.8 5.39999C75.5 5.09999 75.1 5.09999 74.9 5.39999C74.6 5.69999 74.6 6.09999 74.9 6.29999L81.4 12.8L75 19H68.1V0.399994H66.8V8.99999C65.7 6.79999 63.5 5.79999 61.2 5.79999C57.4 5.79999 54.4 8.29999 54.4 12.8C54.4 17.3 57.4 19.8 61.2 19.8C63.5 19.8 65.7 18.6 66.9 16.6V19.2C66.8 19.3 66.7 19.5 66.7 19.7C66.7 20.1 67 20.4 67.4 20.4H75.5C75.7 20.4 75.8 20.3 76 20.2L82.9 13.3C82.9 13 82.9 12.5 82.7 12.3ZM61.1 18.5C58 18.5 55.5 16.6 55.5 12.8C55.5 8.99999 58 7.09999 61.1 7.09999C64.2 7.09999 66.7 9.39999 66.7 12.8C66.7 16.2 64.3 18.5 61.1 18.5Z" fill="white"/></svg>